<svg width="366" height="99" viewBox="0 0 366 99" fill="none" xmlns="http://www.w3.org/2000/svg">
<path d="M80.3327 81V38.5291H90.56V81H80.3327ZM80.3327 33.7667V22.8367H90.56V33.7667H80.3327ZM98.2185 81V38.5291H107.821V48.3661L106.728 46.7266C107.509 43.6558 109.07 41.3657 111.413 39.8563C113.755 38.3469 116.513 37.5922 119.688 37.5922C123.175 37.5922 126.246 38.5031 128.901 40.3247C131.555 42.1464 133.273 44.5406 134.053 47.5073L131.165 47.7415C132.466 44.3584 134.418 41.8341 137.02 40.1686C139.622 38.451 142.615 37.5922 145.998 37.5922C149.017 37.5922 151.698 38.2689 154.04 39.6221C156.434 40.9753 158.308 42.8751 159.661 45.3213C161.014 47.7155 161.691 50.5001 161.691 53.675V81H151.463V56.0952C151.463 54.2215 151.125 52.608 150.448 51.2548C149.772 49.9015 148.835 48.8606 147.638 48.1319C146.441 47.3512 144.983 46.9608 143.266 46.9608C141.652 46.9608 140.221 47.3512 138.972 48.1319C137.723 48.8606 136.76 49.9015 136.083 51.2548C135.407 52.608 135.068 54.2215 135.068 56.0952V81H124.841V56.0952C124.841 54.2215 124.503 52.608 123.826 51.2548C123.149 49.9015 122.186 48.8606 120.937 48.1319C119.74 47.3512 118.309 46.9608 116.643 46.9608C115.03 46.9608 113.599 47.3512 112.349 48.1319C111.1 48.8606 110.137 49.9015 109.461 51.2548C108.784 52.608 108.446 54.2215 108.446 56.0952V81H98.2185ZM168.559 96.6143V38.5291H178.161V46.9608L177.225 44.8529C178.682 42.5628 180.66 40.7932 183.158 39.544C185.656 38.2428 188.545 37.5922 191.824 37.5922C195.832 37.5922 199.449 38.5811 202.676 40.559C205.903 42.5368 208.453 45.1912 210.327 48.5223C212.253 51.8533 213.216 55.6007 213.216 59.7646C213.216 63.8763 212.279 67.6237 210.405 71.0068C208.531 74.3899 205.981 77.0704 202.754 79.0482C199.527 80.974 195.858 81.9369 191.746 81.9369C188.675 81.9369 185.839 81.3383 183.236 80.1412C180.686 78.8921 178.656 77.1224 177.147 74.8324L178.786 72.8025V96.6143H168.559ZM190.575 72.5683C192.917 72.5683 194.999 72.0218 196.821 70.9288C198.642 69.8358 200.048 68.3264 201.036 66.4006C202.077 64.4749 202.598 62.2628 202.598 59.7646C202.598 57.2663 202.077 55.0803 201.036 53.2065C200.048 51.2808 198.642 49.7714 196.821 48.6784C194.999 47.5333 192.917 46.9608 190.575 46.9608C188.337 46.9608 186.307 47.5073 184.485 48.6003C182.716 49.6933 181.31 51.2287 180.269 53.2065C179.281 55.1323 178.786 57.3183 178.786 59.7646C178.786 62.2628 179.281 64.4749 180.269 66.4006C181.31 68.3264 182.716 69.8358 184.485 70.9288C186.307 72.0218 188.337 72.5683 190.575 72.5683ZM219.229 81V21.8999H229.456V81H219.229ZM237.114 81V38.5291H247.342V81H237.114ZM237.114 33.7667V22.8367H247.342V33.7667H237.114ZM275.455 81.9369C271.239 81.9369 267.44 80.974 264.057 79.0482C260.725 77.0704 258.097 74.416 256.171 71.0849C254.246 67.7018 253.283 63.9023 253.283 59.6865C253.283 55.4706 254.246 51.6972 256.171 48.3661C258.097 45.0351 260.725 42.4067 264.057 40.4809C267.44 38.5551 271.239 37.5922 275.455 37.5922C278.474 37.5922 281.284 38.1387 283.887 39.2317C286.489 40.2727 288.727 41.73 290.601 43.6037C292.527 45.4254 293.906 47.6114 294.739 50.1618L285.76 54.0653C284.98 51.9314 283.652 50.2138 281.779 48.9126C279.957 47.6114 277.849 46.9608 275.455 46.9608C273.217 46.9608 271.213 47.5073 269.443 48.6003C267.726 49.6933 266.373 51.2027 265.384 53.1285C264.395 55.0542 263.9 57.2663 263.9 59.7646C263.9 62.2628 264.395 64.4749 265.384 66.4006C266.373 68.3264 267.726 69.8358 269.443 70.9288C271.213 72.0218 273.217 72.5683 275.455 72.5683C277.901 72.5683 280.035 71.9177 281.857 70.6165C283.678 69.3153 284.98 67.5717 285.76 65.3857L294.739 69.4454C293.906 71.8396 292.553 73.9996 290.679 75.9254C288.805 77.7991 286.567 79.2824 283.965 80.3754C281.362 81.4164 278.526 81.9369 275.455 81.9369ZM300.714 81V38.5291H310.942V81H300.714ZM300.714 33.7667V22.8367H310.942V33.7667H300.714ZM337.962 81.4684C333.174 81.4684 329.452 80.1672 326.798 77.5649C324.195 74.9104 322.894 71.189 322.894 66.4006V47.6635H315.555V38.5291H316.336C318.418 38.5291 320.032 37.9826 321.177 36.8896C322.322 35.7966 322.894 34.2091 322.894 32.1272V28.8482H333.121V38.5291H342.88V47.6635H333.121V65.8541C333.121 67.2594 333.356 68.4565 333.824 69.4454C334.345 70.4343 335.125 71.189 336.166 71.7095C337.259 72.23 338.639 72.4902 340.304 72.4902C340.668 72.4902 341.085 72.4642 341.553 72.4121C342.074 72.3601 342.568 72.308 343.037 72.256V81C342.308 81.1041 341.475 81.2082 340.538 81.3123C339.601 81.4164 338.743 81.4684 337.962 81.4684Z" fill="#073E2B"/>
<g clip-path="url(#clip0_131_7)">
<path d="M0.464844 33.2865V98.3282L27.2702 77.9411V12.375" fill="#5DE567"/>
<path d="M58.7506 78.3177V12.416L32.3438 32.6983V98.3273" fill="#2C7731"/>
</g>
<path d="M356.348 23H358.623L361.027 28.8636H361.129L363.532 23H365.808V31.7273H364.018V26.0469H363.946L361.687 31.6847H360.468L358.21 26.0256H358.137V31.7273H356.348V23Z" fill="#073E2B"/>
<path d="M348 24.5213V23H355.168V24.5213H352.496V31.7273H350.672V24.5213H348Z" fill="#073E2B"/>
<defs>
<clipPath id="clip0_131_7">
<rect width="58.3089" height="85.9952" fill="white" transform="translate(0.464844 12.375)"/>
</clipPath>
</defs>
</svg>
