<svg width="365" height="99" viewBox="0 0 365 99" fill="none" xmlns="http://www.w3.org/2000/svg">
<path d="M79.9342 81V38.4947H90.1698V81H79.9342ZM79.9342 33.7285V22.7896H90.1698V33.7285H79.9342ZM97.8345 81V38.4947H107.445V48.3397L106.351 46.6989C107.133 43.6256 108.695 41.3336 111.039 39.823C113.383 38.3124 116.144 37.5571 119.322 37.5571C122.812 37.5571 125.885 38.4687 128.541 40.2918C131.198 42.115 132.917 44.5111 133.698 47.4802L130.807 47.7146C132.11 44.3288 134.063 41.8024 136.667 40.1355C139.272 38.4166 142.267 37.5571 145.653 37.5571C148.674 37.5571 151.357 38.2343 153.701 39.5886C156.097 40.9429 157.972 42.8442 159.327 45.2924C160.681 47.6886 161.358 50.4754 161.358 53.6528V81H151.122V56.075C151.122 54.1998 150.784 52.585 150.107 51.2307C149.429 49.8763 148.492 48.8345 147.294 48.1053C146.096 47.3239 144.637 46.9333 142.918 46.9333C141.303 46.9333 139.871 47.3239 138.621 48.1053C137.371 48.8345 136.407 49.8763 135.73 51.2307C135.053 52.585 134.714 54.1998 134.714 56.075V81H124.478V56.075C124.478 54.1998 124.14 52.585 123.463 51.2307C122.786 49.8763 121.822 48.8345 120.572 48.1053C119.374 47.3239 117.941 46.9333 116.274 46.9333C114.66 46.9333 113.227 47.3239 111.977 48.1053C110.727 48.8345 109.763 49.8763 109.086 51.2307C108.409 52.585 108.07 54.1998 108.07 56.075V81H97.8345ZM168.232 96.6269V38.4947H177.842V46.9333L176.905 44.8236C178.363 42.5317 180.343 40.7606 182.843 39.5105C185.343 38.2082 188.234 37.5571 191.516 37.5571C195.527 37.5571 199.147 38.5468 202.377 40.5262C205.606 42.5056 208.158 45.1622 210.034 48.496C211.961 51.8297 212.925 55.5802 212.925 59.7474C212.925 63.8625 211.987 67.6129 210.112 70.9988C208.237 74.3846 205.684 77.0672 202.455 79.0466C199.225 80.974 195.553 81.9376 191.438 81.9376C188.364 81.9376 185.525 81.3386 182.921 80.1405C180.369 78.8904 178.337 77.1193 176.826 74.8274L178.467 72.7959V96.6269H168.232ZM190.266 72.5615C192.61 72.5615 194.693 72.0145 196.516 70.9206C198.34 69.8267 199.746 68.3161 200.736 66.3888C201.777 64.4615 202.298 62.2477 202.298 59.7474C202.298 57.247 201.777 55.0593 200.736 53.184C199.746 51.2567 198.34 49.7461 196.516 48.6522C194.693 47.5063 192.61 46.9333 190.266 46.9333C188.026 46.9333 185.994 47.4802 184.171 48.5741C182.4 49.668 180.994 51.2046 179.952 53.184C178.962 55.1114 178.467 57.2991 178.467 59.7474C178.467 62.2477 178.962 64.4615 179.952 66.3888C180.994 68.3161 182.4 69.8267 184.171 70.9206C185.994 72.0145 188.026 72.5615 190.266 72.5615ZM218.942 81V21.852H229.178V81H218.942ZM236.843 81V38.4947H247.078V81H236.843ZM236.843 33.7285V22.7896H247.078V33.7285H236.843ZM275.214 81.9376C270.995 81.9376 267.193 80.974 263.807 79.0466C260.473 77.0672 257.843 74.4106 255.915 71.0769C253.988 67.6911 253.024 63.8885 253.024 59.6692C253.024 55.4499 253.988 51.6734 255.915 48.3397C257.843 45.0059 260.473 42.3754 263.807 40.4481C267.193 38.5208 270.995 37.5571 275.214 37.5571C278.236 37.5571 281.049 38.104 283.653 39.1979C286.257 40.2397 288.497 41.6982 290.373 43.5735C292.3 45.3966 293.68 47.5844 294.514 50.1368L285.528 54.0435C284.747 51.9078 283.419 50.1889 281.543 48.8866C279.72 47.5844 277.611 46.9333 275.214 46.9333C272.975 46.9333 270.969 47.4802 269.198 48.5741C267.479 49.668 266.125 51.1786 265.135 53.1059C264.145 55.0332 263.651 57.247 263.651 59.7474C263.651 62.2477 264.145 64.4615 265.135 66.3888C266.125 68.3161 267.479 69.8267 269.198 70.9206C270.969 72.0145 272.975 72.5615 275.214 72.5615C277.663 72.5615 279.798 71.9103 281.622 70.6081C283.445 69.3058 284.747 67.5608 285.528 65.3731L294.514 69.4361C293.68 71.8322 292.326 73.9939 290.451 75.9212C288.575 77.7965 286.336 79.281 283.731 80.3749C281.127 81.4167 278.288 81.9376 275.214 81.9376ZM300.494 81V38.4947H310.73V81H300.494ZM300.494 33.7285V22.7896H310.73V33.7285H300.494ZM337.772 81.4688C332.98 81.4688 329.255 80.1666 326.599 77.5621C323.994 74.9055 322.692 71.1811 322.692 66.3888V47.6365H315.347V38.4947H316.129C318.212 38.4947 319.827 37.9478 320.973 36.8539C322.119 35.76 322.692 34.1713 322.692 32.0877V28.806H332.928V38.4947H342.695V47.6365H332.928V65.8419C332.928 67.2483 333.162 68.4464 333.631 69.4361C334.152 70.4258 334.933 71.1811 335.975 71.702C337.069 72.2229 338.449 72.4833 340.116 72.4833C340.481 72.4833 340.897 72.4573 341.366 72.4052C341.887 72.3531 342.382 72.301 342.851 72.2489V81C342.122 81.1042 341.288 81.2084 340.35 81.3125C339.413 81.4167 338.553 81.4688 337.772 81.4688Z" fill="#F4FFF5"/>
<g clip-path="url(#clip0_126_139)">
<path d="M0 33.3132V98.4076L26.827 78.0039V12.3848" fill="#5DE567"/>
<path d="M58.3344 78.3808V12.4258L31.9062 32.7245V98.4066" fill="#2C7731"/>
</g>
<path d="M355.348 22H357.623L360.027 27.8636H360.129L362.532 22H364.808V30.7273H363.018V25.0469H362.946L360.687 30.6847H359.468L357.21 25.0256H357.137V30.7273H355.348V22Z" fill="#F4FFF5"/>
<path d="M347 23.5213V22H354.168V23.5213H351.496V30.7273H349.672V23.5213H347Z" fill="#F4FFF5"/>
<defs>
<clipPath id="clip0_126_139">
<rect width="58.3561" height="86.0648" fill="white" transform="translate(0 12.3848)"/>
</clipPath>
</defs>
</svg>
