<svg width="186" height="29" viewBox="0 0 186 29" fill="none" xmlns="http://www.w3.org/2000/svg">
<path d="M9.24271 0.83444C10.2615 0.81244 11.2791 0.915794 12.2744 1.14233C13.1367 1.35086 13.9469 1.74533 14.6522 2.3C15.3407 2.86861 15.8769 3.61067 16.2096 4.45524C16.6128 5.50829 16.803 6.63588 16.7684 7.76816C16.8044 9.12247 16.4572 10.4581 15.7697 11.6106C15.0643 12.7056 13.9858 13.4842 12.7499 13.7905V13.8644C14.1426 14.0102 15.4239 14.7181 16.3166 15.8349C17.2345 17.111 17.6929 18.6793 17.6125 20.2686C17.6199 21.3096 17.4838 22.3463 17.2083 23.3475C16.9471 24.3098 16.4659 25.1927 15.8054 25.9214C15.087 26.6968 14.2093 27.2945 13.2374 27.6703C11.9818 28.1452 10.6501 28.3667 9.31405 28.323H0.266602V0.83444H9.24271ZM7.15027 12.1279C8.29377 12.2261 9.43708 11.9365 10.4078 11.3028C10.7737 10.9544 11.0565 10.5228 11.2339 10.0419C11.4113 9.56104 11.4785 9.04408 11.4303 8.53173C11.482 8.02575 11.4257 7.51419 11.2654 7.03322C11.1052 6.55226 10.8449 6.11364 10.5029 5.74839C9.64256 5.13857 8.60507 4.85575 7.56638 4.94787H5.62849V12.1525L7.15027 12.1279ZM7.70905 24.2711C8.8163 24.3321 9.91295 24.0211 10.8358 23.3844C11.275 22.9787 11.6126 22.4687 11.8196 21.8981C12.0267 21.3275 12.0971 20.7134 12.0247 20.1085C12.0439 19.4321 11.9349 18.7585 11.7037 18.1256C11.5131 17.6527 11.2202 17.2313 10.8477 16.8941C10.4793 16.5634 10.0385 16.3309 9.56371 16.2167C9.02718 16.0788 8.47581 16.0126 7.92305 16.0197H5.62849V24.3081L7.70905 24.2711Z" fill="#009DDA"/>
<path d="M30.8688 0.834689C32.756 0.711173 34.6178 1.33645 36.0761 2.58351C36.7379 3.2845 37.247 4.1243 37.5689 5.04633C37.8909 5.96835 38.0184 6.95116 37.9427 7.92851C38.0101 9.51555 37.6344 11.0891 36.8608 12.4607C36.4848 13.0452 35.9979 13.5443 35.4297 13.9276C34.8614 14.3108 34.2238 14.5702 33.5557 14.6898V14.7637C34.6584 14.8556 35.6982 15.3333 36.5041 16.1184C37.2333 17.0762 37.6497 18.2493 37.693 19.4683C37.693 19.9855 37.7762 20.5398 37.8 21.1432C37.8238 21.7467 37.8 22.3748 37.8713 23.1753C37.9308 24.6409 38.0021 25.7616 38.0972 26.5252C38.1348 26.8486 38.2419 27.1592 38.4106 27.4342C38.5793 27.7091 38.8053 27.9414 39.0721 28.1139V28.3356H33.1752C32.9009 27.9418 32.7215 27.4857 32.6521 27.0055C32.5793 26.491 32.5317 25.9731 32.5094 25.4537L32.3668 20.1949C32.3737 19.2803 32.0989 18.3872 31.5821 17.6456C31.2821 17.3111 30.9111 17.0536 30.4984 16.8933C30.0857 16.7329 29.6427 16.6743 29.2043 16.7219H26.3272V28.3602H20.9653V0.834689H30.8688ZM28.5623 12.8671C29.6318 12.9387 30.6894 12.6013 31.5346 11.9188C31.92 11.4988 32.2131 10.9973 32.3937 10.4488C32.5743 9.9003 32.6381 9.31781 32.5808 8.74135C32.5808 6.1879 31.3404 4.91528 28.8596 4.92349H26.3272V12.8671H28.5623Z" fill="#009DDA"/>
<path d="M41.8779 0.834473H47.2398V28.36H41.8779V0.834473Z" fill="#009DDA"/>
<path d="M62.8971 7.42345C62.7983 6.90376 62.6175 6.40446 62.3621 5.94557C62.1236 5.50764 61.7997 5.12596 61.411 4.82485C61.0077 4.5213 60.5183 4.36533 60.02 4.38148C59.3831 4.38551 58.765 4.60568 58.2604 5.00829C57.7558 5.41089 57.3925 5.97373 57.2261 6.61062C56.5386 9.0057 56.2491 11.5044 56.3701 14C56.3701 15.6421 56.4177 17.1323 56.5128 18.4706C56.588 19.6234 56.7712 20.7659 57.0597 21.882C57.2479 22.6877 57.6327 23.4299 58.1772 24.0373C58.56 24.4198 59.0471 24.671 59.5724 24.757C60.0978 24.8429 60.6359 24.7593 61.1138 24.5176C61.5213 24.3263 61.8888 24.0543 62.1957 23.7171C62.5497 23.3119 62.8315 22.8449 63.0279 22.3377C63.2646 21.719 63.3778 21.0571 63.3608 20.3918V17.6085H59.7941V13.5197H68.473V28.3601H64.5616V25.7738H64.4665C63.9244 26.7541 63.119 27.5499 62.1481 28.0645C61.1254 28.5417 60.0118 28.7732 58.8906 28.7419C57.5322 28.8033 56.1803 28.5156 54.9554 27.9044C53.9039 27.2704 53.0719 26.3095 52.5776 25.158C51.9286 23.7179 51.5263 22.1718 51.3887 20.5889C51.1744 18.4945 51.0752 16.3893 51.0915 14.2833C51.0287 12.2503 51.1281 10.2154 51.3887 8.19934C51.6019 6.6529 52.1025 5.16395 52.8629 3.81496C53.523 2.66124 54.4941 1.73238 55.6568 1.14246C56.9978 0.507192 58.4631 0.203622 59.9368 0.255736C62.8733 0.255736 64.9777 1.00699 66.2736 2.5095C67.6667 4.3389 68.357 6.63768 68.2115 8.96291H63.0636C63.0625 8.445 63.0067 7.92877 62.8971 7.42345Z" fill="#009DDA"/>
<path d="M77.3301 0.834473V11.3521H83.5837V0.834473H88.9456V28.36H83.5837V16.1428H77.3301V28.36H71.9683V0.834473H77.3301Z" fill="#009DDA"/>
<path d="M108.23 5.37895H102.416V28.36H97.0542V5.37895H91.2524V0.834473H108.23V5.37895Z" fill="#009DDA"/>
<path d="M125.385 5.37895H115.874V11.857H124.803V16.4138H115.898V23.8032H125.754V28.36H110.536V0.834473H125.385V5.37895Z" fill="#009DDA"/>
<path d="M137.488 0.834669C139.041 0.764426 140.587 1.08561 141.994 1.77066C143.11 2.39006 144.034 3.32545 144.657 4.46779C145.328 5.78394 145.763 7.21517 145.941 8.69206C146.176 10.5209 146.287 12.3645 146.274 14.2095C146.296 16.3199 146.152 18.4286 145.846 20.5151C145.64 22.075 145.139 23.5775 144.372 24.9364C143.711 26.0655 142.737 26.9624 141.578 27.5104C140.181 28.124 138.672 28.414 137.155 28.3602H128.667V0.834669H137.488ZM136.442 24.2344C137.227 24.2738 138.009 24.1042 138.713 23.7418C139.329 23.3536 139.808 22.7708 140.08 22.0792C140.454 21.1075 140.678 20.081 140.746 19.0372C140.853 17.8057 140.912 16.2046 140.912 14.3326C140.912 12.7562 140.912 11.3892 140.757 10.2069C140.699 9.19586 140.494 8.19962 140.151 7.25113C139.883 6.5243 139.401 5.90366 138.772 5.47767C138.046 5.06031 137.224 4.85593 136.394 4.88652H134.123V24.2714L136.442 24.2344Z" fill="#009DDA"/>
<path d="M161.444 7.42345C161.336 6.90474 161.152 6.4063 160.898 5.94557C160.667 5.50558 160.347 5.12308 159.958 4.82485C159.55 4.52287 159.057 4.3672 158.555 4.38148C157.919 4.38551 157.3 4.60568 156.796 5.00828C156.291 5.41089 155.928 5.97373 155.762 6.61062C155.074 9.00569 154.785 11.5044 154.906 14C154.906 15.638 154.906 17.1282 155.06 18.4706C155.126 19.6236 155.305 20.7667 155.595 21.882C155.783 22.6877 156.168 23.4299 156.713 24.0373C156.96 24.2883 157.254 24.4844 157.577 24.6136C157.9 24.7428 158.245 24.8023 158.591 24.7885C158.962 24.7783 159.327 24.6859 159.661 24.5176C160.065 24.3257 160.428 24.0537 160.731 23.7171C161.093 23.3157 161.379 22.8479 161.575 22.3377C161.812 21.719 161.925 21.0571 161.908 20.3918V17.6085H158.341V13.5197H167.02V28.3601H163.145V25.7738H163.073C162.514 26.762 161.687 27.5585 160.695 28.0645C159.674 28.5442 158.559 28.7758 157.438 28.7419C156.055 28.8005 154.681 28.4954 153.443 27.8551C152.393 27.2199 151.561 26.2593 151.065 25.1087C150.422 23.6666 150.02 22.1215 149.877 20.5396C149.668 18.4448 149.569 16.3399 149.579 14.234C149.56 12.1973 149.703 10.1624 150.007 8.15007C150.226 6.60502 150.726 5.11712 151.482 3.7657C152.134 2.6446 153.078 1.73574 154.204 1.14246C155.545 0.507191 157.01 0.203622 158.484 0.255736C161.409 0.255736 163.525 1.00699 164.809 2.5095C166.203 4.35106 166.882 6.66626 166.711 8.99985H161.575C161.583 8.47118 161.539 7.94307 161.444 7.42345Z" fill="#009DDA"/>
<path d="M185.365 5.37895H175.853V11.857H184.794V16.4138H175.865V23.8032H185.733V28.36H170.503V0.834473H185.365V5.37895Z" fill="#009DDA"/>
</svg>
